<mxfile host="app.diagrams.net" agent="Mozilla/5.0 (Windows NT 10.0; Win64; x64) AppleWebKit/537.36 (KHTML, like Gecko) Chrome/133.0.0.0 Safari/537.36 OPR/118.0.0.0" version="27.0.6">
  <diagram name="Página-1" id="YoQqCP4p3tRLKwaqa3iC">
    <mxGraphModel dx="1458" dy="796" grid="1" gridSize="10" guides="1" tooltips="1" connect="1" arrows="1" fold="1" page="1" pageScale="1" pageWidth="827" pageHeight="1169" math="0" shadow="0">
      <root>
        <mxCell id="0" />
        <mxCell id="1" parent="0" />
        <mxCell id="9lxZBeyKSvM23oFu4yKc-104" value="" style="group" vertex="1" connectable="0" parent="1">
          <mxGeometry x="31" y="61" width="764.25" height="1046.67" as="geometry" />
        </mxCell>
        <mxCell id="9lxZBeyKSvM23oFu4yKc-92" style="edgeStyle=orthogonalEdgeStyle;rounded=0;orthogonalLoop=1;jettySize=auto;html=1;exitX=0.5;exitY=0.5;exitDx=0;exitDy=0;exitPerimeter=0;entryX=0;entryY=0.5;entryDx=0;entryDy=0;" edge="1" parent="9lxZBeyKSvM23oFu4yKc-104" source="dQ3g4nQFb_6-99uNhmHk-12" target="9lxZBeyKSvM23oFu4yKc-91">
          <mxGeometry relative="1" as="geometry" />
        </mxCell>
        <mxCell id="9lxZBeyKSvM23oFu4yKc-95" style="edgeStyle=orthogonalEdgeStyle;rounded=0;orthogonalLoop=1;jettySize=auto;html=1;exitX=0.5;exitY=0.5;exitDx=0;exitDy=0;exitPerimeter=0;entryX=0;entryY=0.5;entryDx=0;entryDy=0;" edge="1" parent="9lxZBeyKSvM23oFu4yKc-104" source="dQ3g4nQFb_6-99uNhmHk-12" target="9lxZBeyKSvM23oFu4yKc-94">
          <mxGeometry relative="1" as="geometry" />
        </mxCell>
        <mxCell id="9lxZBeyKSvM23oFu4yKc-97" style="edgeStyle=orthogonalEdgeStyle;rounded=0;orthogonalLoop=1;jettySize=auto;html=1;exitX=0.5;exitY=0.5;exitDx=0;exitDy=0;exitPerimeter=0;entryX=0;entryY=0.5;entryDx=0;entryDy=0;" edge="1" parent="9lxZBeyKSvM23oFu4yKc-104" source="dQ3g4nQFb_6-99uNhmHk-12" target="9lxZBeyKSvM23oFu4yKc-96">
          <mxGeometry relative="1" as="geometry" />
        </mxCell>
        <mxCell id="9lxZBeyKSvM23oFu4yKc-101" style="edgeStyle=orthogonalEdgeStyle;rounded=0;orthogonalLoop=1;jettySize=auto;html=1;endArrow=block;endFill=0;" edge="1" parent="9lxZBeyKSvM23oFu4yKc-104">
          <mxGeometry relative="1" as="geometry">
            <mxPoint x="14.261246251249585" y="621.3807299270072" as="targetPoint" />
            <mxPoint x="14.261246251249585" y="916.7912408759123" as="sourcePoint" />
          </mxGeometry>
        </mxCell>
        <mxCell id="dQ3g4nQFb_6-99uNhmHk-12" value="Jugador" style="shape=umlActor;verticalLabelPosition=bottom;verticalAlign=top;html=1;outlineConnect=0;" parent="9lxZBeyKSvM23oFu4yKc-104" vertex="1">
          <mxGeometry x="2.037320893035655" y="926.4684817518247" width="24.44785071642786" height="48.89553284671533" as="geometry" />
        </mxCell>
        <mxCell id="9lxZBeyKSvM23oFu4yKc-49" value="" style="group" vertex="1" connectable="0" parent="9lxZBeyKSvM23oFu4yKc-104">
          <mxGeometry x="2.037320893035655" width="762.2126791069644" height="417.64934306569336" as="geometry" />
        </mxCell>
        <mxCell id="9lxZBeyKSvM23oFu4yKc-19" style="edgeStyle=orthogonalEdgeStyle;rounded=0;orthogonalLoop=1;jettySize=auto;html=1;exitX=0.5;exitY=0.5;exitDx=0;exitDy=0;exitPerimeter=0;entryX=0;entryY=0.5;entryDx=0;entryDy=0;" edge="1" parent="9lxZBeyKSvM23oFu4yKc-49" source="dQ3g4nQFb_6-99uNhmHk-13" target="dQ3g4nQFb_6-99uNhmHk-27">
          <mxGeometry relative="1" as="geometry" />
        </mxCell>
        <mxCell id="9lxZBeyKSvM23oFu4yKc-40" style="edgeStyle=orthogonalEdgeStyle;rounded=0;orthogonalLoop=1;jettySize=auto;html=1;exitX=0.5;exitY=0.5;exitDx=0;exitDy=0;exitPerimeter=0;entryX=0;entryY=0.5;entryDx=0;entryDy=0;" edge="1" parent="9lxZBeyKSvM23oFu4yKc-49" source="dQ3g4nQFb_6-99uNhmHk-13" target="dQ3g4nQFb_6-99uNhmHk-29">
          <mxGeometry relative="1" as="geometry" />
        </mxCell>
        <mxCell id="dQ3g4nQFb_6-99uNhmHk-13" value="Game Master" style="shape=umlActor;verticalLabelPosition=bottom;verticalAlign=top;html=1;outlineConnect=0;" parent="9lxZBeyKSvM23oFu4yKc-49" vertex="1">
          <mxGeometry y="63.39320385818561" width="22.374149093159424" height="44.748143899895716" as="geometry" />
        </mxCell>
        <mxCell id="dQ3g4nQFb_6-99uNhmHk-27" value="Publicar partides" style="ellipse;whiteSpace=wrap;html=1;" parent="9lxZBeyKSvM23oFu4yKc-49" vertex="1">
          <mxGeometry x="137.22811443804449" y="59.664191866527624" width="89.4965963726377" height="52.20616788321167" as="geometry" />
        </mxCell>
        <mxCell id="dQ3g4nQFb_6-99uNhmHk-28" value="Gestionar sol·licituts de jugadors" style="ellipse;whiteSpace=wrap;html=1;" parent="9lxZBeyKSvM23oFu4yKc-49" vertex="1">
          <mxGeometry x="364.69863021849864" y="305.77898331595406" width="89.4965963726377" height="52.20616788321167" as="geometry" />
        </mxCell>
        <mxCell id="dQ3g4nQFb_6-99uNhmHk-29" value="Modificar partides" style="ellipse;whiteSpace=wrap;html=1;" parent="9lxZBeyKSvM23oFu4yKc-49" vertex="1">
          <mxGeometry x="137.22811443804449" y="128.2780125130344" width="89.4965963726377" height="52.20616788321167" as="geometry" />
        </mxCell>
        <mxCell id="vifOnb5EJLgUsU_zZwA6-9" value="Gestionar participants" style="ellipse;whiteSpace=wrap;html=1;" parent="9lxZBeyKSvM23oFu4yKc-49" vertex="1">
          <mxGeometry x="364.69863021849864" y="246.11479144942646" width="89.4965963726377" height="52.20616788321167" as="geometry" />
        </mxCell>
        <mxCell id="x6CcU6tTwecmRvXLGNaY-5" value="Tancar partides" style="ellipse;whiteSpace=wrap;html=1;" parent="9lxZBeyKSvM23oFu4yKc-49" vertex="1">
          <mxGeometry x="364.69863021849864" y="365.4431751824817" width="89.4965963726377" height="52.20616788321167" as="geometry" />
        </mxCell>
        <mxCell id="9lxZBeyKSvM23oFu4yKc-20" value="Indicar joc" style="ellipse;whiteSpace=wrap;html=1;" vertex="1" parent="9lxZBeyKSvM23oFu4yKc-49">
          <mxGeometry x="364.69863021849864" width="89.4965963726377" height="52.20616788321167" as="geometry" />
        </mxCell>
        <mxCell id="9lxZBeyKSvM23oFu4yKc-21" value="Indicar modalitat" style="ellipse;whiteSpace=wrap;html=1;" vertex="1" parent="9lxZBeyKSvM23oFu4yKc-49">
          <mxGeometry x="364.69863021849864" y="59.664191866527624" width="89.4965963726377" height="52.20616788321167" as="geometry" />
        </mxCell>
        <mxCell id="9lxZBeyKSvM23oFu4yKc-22" value="Indicar duració" style="ellipse;whiteSpace=wrap;html=1;" vertex="1" parent="9lxZBeyKSvM23oFu4yKc-49">
          <mxGeometry x="364.69863021849864" y="119.32838373305525" width="89.4965963726377" height="52.20616788321167" as="geometry" />
        </mxCell>
        <mxCell id="9lxZBeyKSvM23oFu4yKc-23" value="Indicar ubicació" style="ellipse;whiteSpace=wrap;html=1;" vertex="1" parent="9lxZBeyKSvM23oFu4yKc-49">
          <mxGeometry x="672.7160827343267" y="25.35728154327424" width="89.4965963726377" height="52.20616788321167" as="geometry" />
        </mxCell>
        <mxCell id="9lxZBeyKSvM23oFu4yKc-24" value="Indicar jugadors" style="ellipse;whiteSpace=wrap;html=1;" vertex="1" parent="9lxZBeyKSvM23oFu4yKc-49">
          <mxGeometry x="364.69863021849864" y="180.48418039624605" width="89.4965963726377" height="56.680982273201245" as="geometry" />
        </mxCell>
        <mxCell id="9lxZBeyKSvM23oFu4yKc-25" value="&amp;lt;&amp;lt;include&amp;gt;&amp;gt;" style="html=1;verticalAlign=bottom;labelBackgroundColor=none;endArrow=open;endFill=0;dashed=1;rounded=0;entryX=0;entryY=0.5;entryDx=0;entryDy=0;exitX=1;exitY=0.5;exitDx=0;exitDy=0;" edge="1" parent="9lxZBeyKSvM23oFu4yKc-49" source="9lxZBeyKSvM23oFu4yKc-26" target="9lxZBeyKSvM23oFu4yKc-23">
          <mxGeometry x="-0.0606" y="3" width="160" relative="1" as="geometry">
            <mxPoint x="652.5793485504832" y="41.019131908237746" as="sourcePoint" />
            <mxPoint x="704.7856964345219" y="111.87035974973931" as="targetPoint" />
            <mxPoint as="offset" />
          </mxGeometry>
        </mxCell>
        <mxCell id="9lxZBeyKSvM23oFu4yKc-26" value="Presencial" style="ellipse;whiteSpace=wrap;html=1;" vertex="1" parent="9lxZBeyKSvM23oFu4yKc-49">
          <mxGeometry x="527.2841136287905" y="25.35728154327424" width="89.4965963726377" height="52.20616788321167" as="geometry" />
        </mxCell>
        <mxCell id="9lxZBeyKSvM23oFu4yKc-27" value="&amp;lt;&amp;lt;extend&amp;gt;&amp;gt;" style="html=1;verticalAlign=bottom;labelBackgroundColor=none;endArrow=open;endFill=0;dashed=1;rounded=0;entryX=1;entryY=0.5;entryDx=0;entryDy=0;" edge="1" parent="9lxZBeyKSvM23oFu4yKc-49" target="9lxZBeyKSvM23oFu4yKc-21">
          <mxGeometry x="0.5573" y="-2" width="160" relative="1" as="geometry">
            <mxPoint x="525.7925036892466" y="52.20616788321167" as="sourcePoint" />
            <mxPoint x="460.1616663493122" y="86.51307820646505" as="targetPoint" />
            <mxPoint as="offset" />
            <Array as="points">
              <mxPoint x="501.9267446565431" y="52.95197028154327" />
              <mxPoint x="501.9267446565431" y="86.51307820646505" />
            </Array>
          </mxGeometry>
        </mxCell>
        <mxCell id="9lxZBeyKSvM23oFu4yKc-28" value="Online" style="ellipse;whiteSpace=wrap;html=1;" vertex="1" parent="9lxZBeyKSvM23oFu4yKc-49">
          <mxGeometry x="527.2841136287905" y="86.51307820646505" width="89.4965963726377" height="52.20616788321167" as="geometry" />
        </mxCell>
        <mxCell id="9lxZBeyKSvM23oFu4yKc-29" value="" style="html=1;verticalAlign=bottom;labelBackgroundColor=none;endArrow=open;endFill=0;dashed=1;rounded=0;exitX=0;exitY=0.5;exitDx=0;exitDy=0;entryX=1;entryY=0.5;entryDx=0;entryDy=0;" edge="1" parent="9lxZBeyKSvM23oFu4yKc-49" source="9lxZBeyKSvM23oFu4yKc-28" target="9lxZBeyKSvM23oFu4yKc-21">
          <mxGeometry x="-0.2157" y="30" width="160" relative="1" as="geometry">
            <mxPoint x="528.7757235683342" y="112.6161621480709" as="sourcePoint" />
            <mxPoint x="454.9410315609056" y="86.51307820646505" as="targetPoint" />
            <mxPoint as="offset" />
            <Array as="points">
              <mxPoint x="502.6725496263151" y="112.6161621480709" />
              <mxPoint x="502.6725496263151" y="86.51307820646505" />
            </Array>
          </mxGeometry>
        </mxCell>
        <mxCell id="9lxZBeyKSvM23oFu4yKc-36" value="&amp;lt;&amp;lt;include&amp;gt;&amp;gt;" style="html=1;verticalAlign=bottom;labelBackgroundColor=none;endArrow=open;endFill=0;dashed=1;rounded=0;entryX=0;entryY=0.5;entryDx=0;entryDy=0;exitX=1;exitY=0.5;exitDx=0;exitDy=0;" edge="1" parent="9lxZBeyKSvM23oFu4yKc-49" source="dQ3g4nQFb_6-99uNhmHk-27" target="9lxZBeyKSvM23oFu4yKc-21">
          <mxGeometry x="-0.6108" width="160" relative="1" as="geometry">
            <mxPoint x="197.63831698957492" y="149.16047966631905" as="sourcePoint" />
            <mxPoint x="253.57368972247352" y="149.16047966631905" as="targetPoint" />
            <mxPoint as="offset" />
          </mxGeometry>
        </mxCell>
        <mxCell id="9lxZBeyKSvM23oFu4yKc-37" value="" style="html=1;verticalAlign=bottom;labelBackgroundColor=none;endArrow=open;endFill=0;dashed=1;rounded=0;entryX=0;entryY=0.5;entryDx=0;entryDy=0;exitX=1;exitY=0.5;exitDx=0;exitDy=0;" edge="1" parent="9lxZBeyKSvM23oFu4yKc-49" source="dQ3g4nQFb_6-99uNhmHk-27" target="9lxZBeyKSvM23oFu4yKc-20">
          <mxGeometry x="-0.6108" width="160" relative="1" as="geometry">
            <mxPoint x="234.182760508402" y="93.22529979144942" as="sourcePoint" />
            <mxPoint x="372.1566799162185" y="93.22529979144942" as="targetPoint" />
            <mxPoint as="offset" />
            <Array as="points">
              <mxPoint x="294.5929630599324" y="85.76727580813346" />
              <mxPoint x="294.5929630599324" y="26.103083941605835" />
            </Array>
          </mxGeometry>
        </mxCell>
        <mxCell id="9lxZBeyKSvM23oFu4yKc-38" value="" style="html=1;verticalAlign=bottom;labelBackgroundColor=none;endArrow=open;endFill=0;dashed=1;rounded=0;entryX=0;entryY=0.5;entryDx=0;entryDy=0;exitX=1;exitY=0.5;exitDx=0;exitDy=0;" edge="1" parent="9lxZBeyKSvM23oFu4yKc-49" source="dQ3g4nQFb_6-99uNhmHk-27" target="9lxZBeyKSvM23oFu4yKc-22">
          <mxGeometry x="-0.6108" width="160" relative="1" as="geometry">
            <mxPoint x="234.182760508402" y="93.22529979144942" as="sourcePoint" />
            <mxPoint x="372.1566799162185" y="33.561107924921785" as="targetPoint" />
            <mxPoint as="offset" />
            <Array as="points">
              <mxPoint x="294.5929630599324" y="85.76727580813346" />
              <mxPoint x="294.5929630599324" y="145.4314676746611" />
            </Array>
          </mxGeometry>
        </mxCell>
        <mxCell id="9lxZBeyKSvM23oFu4yKc-39" value="" style="html=1;verticalAlign=bottom;labelBackgroundColor=none;endArrow=open;endFill=0;dashed=1;rounded=0;entryX=0;entryY=0.5;entryDx=0;entryDy=0;exitX=1;exitY=0.5;exitDx=0;exitDy=0;" edge="1" parent="9lxZBeyKSvM23oFu4yKc-49" source="dQ3g4nQFb_6-99uNhmHk-27" target="9lxZBeyKSvM23oFu4yKc-24">
          <mxGeometry x="-0.6108" width="160" relative="1" as="geometry">
            <mxPoint x="220.01246608273672" y="149.16047966631905" as="sourcePoint" />
            <mxPoint x="357.9863854905508" y="209.5704739311783" as="targetPoint" />
            <mxPoint as="offset" />
            <Array as="points">
              <mxPoint x="294.5929630599324" y="85.76727580813346" />
              <mxPoint x="294.5929630599324" y="208.82467153284668" />
            </Array>
          </mxGeometry>
        </mxCell>
        <mxCell id="9lxZBeyKSvM23oFu4yKc-41" value="" style="html=1;verticalAlign=bottom;labelBackgroundColor=none;endArrow=open;endFill=0;dashed=1;rounded=0;entryX=0.5;entryY=1;entryDx=0;entryDy=0;exitX=0;exitY=0.5;exitDx=0;exitDy=0;" edge="1" parent="9lxZBeyKSvM23oFu4yKc-49" source="vifOnb5EJLgUsU_zZwA6-9" target="dQ3g4nQFb_6-99uNhmHk-29">
          <mxGeometry x="-0.2157" y="30" width="160" relative="1" as="geometry">
            <mxPoint x="361.7154103394107" y="268.4888633993743" as="sourcePoint" />
            <mxPoint x="413.9217582234494" y="283.4049113660062" as="targetPoint" />
            <mxPoint as="offset" />
            <Array as="points">
              <mxPoint x="182.72221759413532" y="272.2178753910323" />
            </Array>
          </mxGeometry>
        </mxCell>
        <mxCell id="9lxZBeyKSvM23oFu4yKc-42" value="&amp;lt;&amp;lt;extend&amp;gt;&amp;gt;" style="edgeLabel;html=1;align=center;verticalAlign=middle;resizable=0;points=[];" vertex="1" connectable="0" parent="9lxZBeyKSvM23oFu4yKc-41">
          <mxGeometry x="-0.3523" y="1" relative="1" as="geometry">
            <mxPoint y="-11" as="offset" />
          </mxGeometry>
        </mxCell>
        <mxCell id="9lxZBeyKSvM23oFu4yKc-45" value="&amp;lt;&amp;lt;extend&amp;gt;&amp;gt;" style="edgeLabel;html=1;align=center;verticalAlign=middle;resizable=0;points=[];" vertex="1" connectable="0" parent="9lxZBeyKSvM23oFu4yKc-41">
          <mxGeometry x="-0.3523" y="1" relative="1" as="geometry">
            <mxPoint x="1" y="50" as="offset" />
          </mxGeometry>
        </mxCell>
        <mxCell id="9lxZBeyKSvM23oFu4yKc-43" value="" style="html=1;verticalAlign=bottom;labelBackgroundColor=none;endArrow=open;endFill=0;dashed=1;rounded=0;exitX=0;exitY=0.5;exitDx=0;exitDy=0;" edge="1" parent="9lxZBeyKSvM23oFu4yKc-49" source="dQ3g4nQFb_6-99uNhmHk-28">
          <mxGeometry x="-0.2157" y="30" width="160" relative="1" as="geometry">
            <mxPoint x="357.9863854905508" y="328.89885766423356" as="sourcePoint" />
            <mxPoint x="181.97641262436332" y="181.22998279457767" as="targetPoint" />
            <mxPoint as="offset" />
            <Array as="points">
              <mxPoint x="182.72221759413532" y="331.88206725755987" />
            </Array>
          </mxGeometry>
        </mxCell>
        <mxCell id="9lxZBeyKSvM23oFu4yKc-46" value="" style="html=1;verticalAlign=bottom;labelBackgroundColor=none;endArrow=open;endFill=0;dashed=1;rounded=0;exitX=0;exitY=0.5;exitDx=0;exitDy=0;" edge="1" parent="9lxZBeyKSvM23oFu4yKc-49">
          <mxGeometry x="-0.2157" y="30" width="160" relative="1" as="geometry">
            <mxPoint x="364.69863021849864" y="390.0546543274244" as="sourcePoint" />
            <mxPoint x="181.97641262436332" y="178.99257559958286" as="targetPoint" />
            <mxPoint as="offset" />
            <Array as="points">
              <mxPoint x="182.72221759413532" y="390.0546543274244" />
            </Array>
          </mxGeometry>
        </mxCell>
        <mxCell id="9lxZBeyKSvM23oFu4yKc-47" value="&amp;lt;&amp;lt;extend&amp;gt;&amp;gt;" style="edgeLabel;html=1;align=center;verticalAlign=middle;resizable=0;points=[];" vertex="1" connectable="0" parent="9lxZBeyKSvM23oFu4yKc-46">
          <mxGeometry x="-0.3523" y="1" relative="1" as="geometry">
            <mxPoint x="38" y="-13" as="offset" />
          </mxGeometry>
        </mxCell>
        <mxCell id="9lxZBeyKSvM23oFu4yKc-50" value="" style="group" vertex="1" connectable="0" parent="9lxZBeyKSvM23oFu4yKc-104">
          <mxGeometry y="417.64934306569336" width="225.50086304565147" height="302.4901766423357" as="geometry" />
        </mxCell>
        <mxCell id="9lxZBeyKSvM23oFu4yKc-9" style="edgeStyle=orthogonalEdgeStyle;rounded=0;orthogonalLoop=1;jettySize=auto;html=1;exitX=0.5;exitY=0.5;exitDx=0;exitDy=0;exitPerimeter=0;" edge="1" parent="9lxZBeyKSvM23oFu4yKc-50" source="dQ3g4nQFb_6-99uNhmHk-1" target="dQ3g4nQFb_6-99uNhmHk-40">
          <mxGeometry relative="1" as="geometry" />
        </mxCell>
        <mxCell id="9lxZBeyKSvM23oFu4yKc-10" style="edgeStyle=orthogonalEdgeStyle;rounded=0;orthogonalLoop=1;jettySize=auto;html=1;exitX=0.5;exitY=0.5;exitDx=0;exitDy=0;exitPerimeter=0;entryX=0;entryY=0.5;entryDx=0;entryDy=0;" edge="1" parent="9lxZBeyKSvM23oFu4yKc-50" source="dQ3g4nQFb_6-99uNhmHk-1" target="dQ3g4nQFb_6-99uNhmHk-4">
          <mxGeometry relative="1" as="geometry" />
        </mxCell>
        <mxCell id="9lxZBeyKSvM23oFu4yKc-11" style="edgeStyle=orthogonalEdgeStyle;rounded=0;orthogonalLoop=1;jettySize=auto;html=1;exitX=0.5;exitY=0.5;exitDx=0;exitDy=0;exitPerimeter=0;entryX=0;entryY=0.5;entryDx=0;entryDy=0;" edge="1" parent="9lxZBeyKSvM23oFu4yKc-50" source="dQ3g4nQFb_6-99uNhmHk-1" target="dQ3g4nQFb_6-99uNhmHk-8">
          <mxGeometry relative="1" as="geometry" />
        </mxCell>
        <mxCell id="9lxZBeyKSvM23oFu4yKc-13" style="edgeStyle=orthogonalEdgeStyle;rounded=0;orthogonalLoop=1;jettySize=auto;html=1;exitX=0.5;exitY=0.5;exitDx=0;exitDy=0;exitPerimeter=0;entryX=0;entryY=0.5;entryDx=0;entryDy=0;" edge="1" parent="9lxZBeyKSvM23oFu4yKc-50" source="dQ3g4nQFb_6-99uNhmHk-1" target="9lxZBeyKSvM23oFu4yKc-12">
          <mxGeometry relative="1" as="geometry" />
        </mxCell>
        <mxCell id="9lxZBeyKSvM23oFu4yKc-14" style="edgeStyle=orthogonalEdgeStyle;rounded=0;orthogonalLoop=1;jettySize=auto;html=1;exitX=0.5;exitY=0.5;exitDx=0;exitDy=0;exitPerimeter=0;entryX=0;entryY=0.5;entryDx=0;entryDy=0;" edge="1" parent="9lxZBeyKSvM23oFu4yKc-50" source="dQ3g4nQFb_6-99uNhmHk-1" target="dQ3g4nQFb_6-99uNhmHk-6">
          <mxGeometry relative="1" as="geometry" />
        </mxCell>
        <mxCell id="dQ3g4nQFb_6-99uNhmHk-1" value="Usuari registrat" style="shape=umlActor;verticalLabelPosition=bottom;verticalAlign=top;html=1;outlineConnect=0;" parent="9lxZBeyKSvM23oFu4yKc-50" vertex="1">
          <mxGeometry y="127.36428490203609" width="23.904685128514288" height="47.761606838263525" as="geometry" />
        </mxCell>
        <mxCell id="dQ3g4nQFb_6-99uNhmHk-4" value="Logout" style="ellipse;whiteSpace=wrap;html=1;" parent="9lxZBeyKSvM23oFu4yKc-50" vertex="1">
          <mxGeometry x="129.8821225315943" y="63.682142451018045" width="95.61874051405715" height="47.761606838263525" as="geometry" />
        </mxCell>
        <mxCell id="dQ3g4nQFb_6-99uNhmHk-6" value="Enviar i rebre missatges" style="ellipse;whiteSpace=wrap;html=1;" parent="9lxZBeyKSvM23oFu4yKc-50" vertex="1">
          <mxGeometry x="129.8821225315943" y="254.72856980407218" width="95.61874051405715" height="47.761606838263525" as="geometry" />
        </mxCell>
        <mxCell id="dQ3g4nQFb_6-99uNhmHk-8" value="Consultar altres perfils" style="ellipse;whiteSpace=wrap;html=1;" parent="9lxZBeyKSvM23oFu4yKc-50" vertex="1">
          <mxGeometry x="129.8821225315943" y="191.0464273530541" width="95.61874051405715" height="47.761606838263525" as="geometry" />
        </mxCell>
        <mxCell id="dQ3g4nQFb_6-99uNhmHk-40" value="Gestionar informació&amp;nbsp; del seu&amp;nbsp;&lt;span style=&quot;color: light-dark(rgb(0, 0, 0), rgb(255, 255, 255)); background-color: transparent;&quot;&gt;perfil&lt;/span&gt;" style="ellipse;whiteSpace=wrap;html=1;" parent="9lxZBeyKSvM23oFu4yKc-50" vertex="1">
          <mxGeometry x="129.8821225315943" y="127.36428490203609" width="95.61874051405715" height="47.761606838263525" as="geometry" />
        </mxCell>
        <mxCell id="9lxZBeyKSvM23oFu4yKc-12" value="Login" style="ellipse;whiteSpace=wrap;html=1;" vertex="1" parent="9lxZBeyKSvM23oFu4yKc-50">
          <mxGeometry x="129.8821225315943" width="95.61874051405715" height="47.761606838263525" as="geometry" />
        </mxCell>
        <mxCell id="9lxZBeyKSvM23oFu4yKc-51" value="" style="group" vertex="1" connectable="0" parent="9lxZBeyKSvM23oFu4yKc-104">
          <mxGeometry x="538.8713762079308" y="541.9254890510948" width="203.69134288570478" height="51.920943941605834" as="geometry" />
        </mxCell>
        <mxCell id="9lxZBeyKSvM23oFu4yKc-6" style="edgeStyle=orthogonalEdgeStyle;rounded=0;orthogonalLoop=1;jettySize=auto;html=1;exitX=0.5;exitY=0.5;exitDx=0;exitDy=0;exitPerimeter=0;entryX=1;entryY=0.5;entryDx=0;entryDy=0;" edge="1" parent="9lxZBeyKSvM23oFu4yKc-51" target="9lxZBeyKSvM23oFu4yKc-5">
          <mxGeometry relative="1" as="geometry">
            <mxPoint x="191.7094991865457" y="25.561080094329025" as="sourcePoint" />
            <mxPoint x="112.6293307720876" y="27.55803947669848" as="targetPoint" />
          </mxGeometry>
        </mxCell>
        <mxCell id="9lxZBeyKSvM23oFu4yKc-1" value="Usuari no registrat" style="shape=umlActor;verticalLabelPosition=bottom;verticalAlign=top;html=1;outlineConnect=0;" vertex="1" parent="9lxZBeyKSvM23oFu4yKc-51">
          <mxGeometry x="179.72765548738658" y="2.396351258843346" width="23.963687398318214" height="47.92702517686692" as="geometry" />
        </mxCell>
        <mxCell id="9lxZBeyKSvM23oFu4yKc-5" value="Registrar-se" style="ellipse;whiteSpace=wrap;html=1;" vertex="1" parent="9lxZBeyKSvM23oFu4yKc-51">
          <mxGeometry width="95.85474959327286" height="51.920943941605834" as="geometry" />
        </mxCell>
        <mxCell id="9lxZBeyKSvM23oFu4yKc-91" value="Cercar partides" style="ellipse;whiteSpace=wrap;html=1;" vertex="1" parent="9lxZBeyKSvM23oFu4yKc-104">
          <mxGeometry x="129.88212253159432" y="848.6564953515176" width="95.61874051405715" height="47.761606838263525" as="geometry" />
        </mxCell>
        <mxCell id="9lxZBeyKSvM23oFu4yKc-94" value="Filtrar partides" style="ellipse;whiteSpace=wrap;html=1;" vertex="1" parent="9lxZBeyKSvM23oFu4yKc-104">
          <mxGeometry x="129.88212253159432" y="927.6024077602767" width="95.61874051405715" height="47.761606838263525" as="geometry" />
        </mxCell>
        <mxCell id="9lxZBeyKSvM23oFu4yKc-96" value="Gestionar sol·licituds" style="ellipse;whiteSpace=wrap;html=1;" vertex="1" parent="9lxZBeyKSvM23oFu4yKc-104">
          <mxGeometry x="129.88212253159432" y="998.9083931617365" width="95.61874051405715" height="47.761606838263525" as="geometry" />
        </mxCell>
        <mxCell id="9lxZBeyKSvM23oFu4yKc-99" value="" style="edgeStyle=orthogonalEdgeStyle;rounded=0;orthogonalLoop=1;jettySize=auto;html=1;dashed=1;endArrow=open;endFill=0;" edge="1" parent="9lxZBeyKSvM23oFu4yKc-104" source="9lxZBeyKSvM23oFu4yKc-98" target="9lxZBeyKSvM23oFu4yKc-91">
          <mxGeometry relative="1" as="geometry" />
        </mxCell>
        <mxCell id="9lxZBeyKSvM23oFu4yKc-100" value="&amp;lt;&amp;lt;extend&amp;gt;&amp;gt;" style="edgeLabel;html=1;align=center;verticalAlign=middle;resizable=0;points=[];" vertex="1" connectable="0" parent="9lxZBeyKSvM23oFu4yKc-99">
          <mxGeometry x="-0.1402" y="2" relative="1" as="geometry">
            <mxPoint x="-3" y="-10" as="offset" />
          </mxGeometry>
        </mxCell>
        <mxCell id="9lxZBeyKSvM23oFu4yKc-98" value="Unir-se a partides" style="ellipse;whiteSpace=wrap;html=1;" vertex="1" parent="9lxZBeyKSvM23oFu4yKc-104">
          <mxGeometry x="311.7130122350265" y="848.6564953515176" width="95.61874051405715" height="47.761606838263525" as="geometry" />
        </mxCell>
        <mxCell id="9lxZBeyKSvM23oFu4yKc-103" value="" style="edgeStyle=orthogonalEdgeStyle;rounded=0;orthogonalLoop=1;jettySize=auto;html=1;endArrow=block;endFill=0;" edge="1" parent="9lxZBeyKSvM23oFu4yKc-104">
          <mxGeometry relative="1" as="geometry">
            <mxPoint x="13.242585804731757" y="132.425401459854" as="sourcePoint" />
            <mxPoint x="13.242585804731757" y="539.8881751824817" as="targetPoint" />
          </mxGeometry>
        </mxCell>
      </root>
    </mxGraphModel>
  </diagram>
</mxfile>
